<svg width="100" height="100" viewBox="0 0 100 100" fill="none" xmlns="http://www.w3.org/2000/svg">
<rect x="0.492188" y="0.933105" width="98.8534" height="98.8534" rx="49.4267" fill="#7B6FC5"/>
<path fill-rule="evenodd" clip-rule="evenodd" d="M39.6693 26.1598C34.868 34.4769 37.7175 45.1121 46.0346 49.9155C50.8358 41.5984 47.9864 30.9632 39.6693 26.1598ZM49.7988 56.4635C49.7835 66.0551 42.0036 73.8255 32.4084 73.8255C32.4084 64.2208 40.1941 56.4351 49.7988 56.435L49.7988 56.4635ZM49.7988 56.4635L49.7989 56.435C59.4035 56.4351 67.1892 64.2208 67.1892 73.8255C57.594 73.8255 49.8142 66.0551 49.7988 56.4635ZM46.0345 49.9155C37.7174 45.1142 27.0822 47.9637 22.2788 56.2807C30.5959 61.082 41.2311 58.2325 46.0345 49.9155ZM77.3188 56.2807C68.9996 61.082 58.3644 58.2325 53.5631 49.9155C53.5631 49.9155 53.5631 49.9155 53.5631 49.9155C48.7618 41.5963 51.6113 30.9611 59.9284 26.1598C64.7276 34.4754 61.8826 45.105 53.5739 49.9092C61.8894 45.1167 72.5196 47.9673 77.3188 56.2807Z" fill="white"/>
</svg>
