<svg width="75" height="74" viewBox="0 0 75 74" fill="none" xmlns="http://www.w3.org/2000/svg">
<rect x="1.38669" y="0.826507" width="72.24" height="72.24" rx="36.12" stroke="#505050" stroke-width="1.14667"/>
<rect x="5.40002" y="4.83972" width="64.2133" height="64.2133" rx="32.1067" fill="#7B6FC5"/>
<path fill-rule="evenodd" clip-rule="evenodd" d="M47.2646 30.0324L41.4059 33.4437L41.4048 33.4426C40.1416 34.179 38.5488 33.2813 38.5385 31.8289L38.4897 25.0897C38.4794 23.6372 40.0586 22.7181 41.332 23.4353L47.2408 26.7632C48.5153 27.4804 48.5278 29.2971 47.2646 30.0324ZM33.5564 33.5001L27.6477 30.1722L27.6488 30.1734C26.3743 29.4561 26.3618 27.6394 27.6249 26.9041L33.4836 23.4928C34.7468 22.7564 36.3396 23.6541 36.3499 25.1066L36.3988 31.8457C36.409 33.2982 34.8298 34.2173 33.5564 33.5001ZM51.2166 33.4787C51.2064 32.0262 49.6136 31.1285 48.3504 31.8649L42.4917 35.2762C41.2285 36.0115 41.241 37.8283 42.5156 38.5455L48.4243 41.8734C49.6977 42.5906 51.2769 41.6715 51.2667 40.219L51.2178 33.4798L51.2166 33.4787ZM41.4559 40.3927L47.3646 43.7206L47.3635 43.7195C48.638 44.4367 48.6505 46.2534 47.3874 46.9887L41.5287 50.4C40.2655 51.1364 38.6727 50.2388 38.6624 48.7863L38.6135 42.0471C38.6033 40.5946 40.1825 39.6755 41.4559 40.3927ZM33.6064 40.4491L27.7477 43.8604C26.4845 44.5957 26.497 46.4124 27.7715 47.1297L33.6803 50.4575C34.9537 51.1747 36.5329 50.2557 36.5227 48.8032L36.4738 42.064C36.4635 40.6115 34.8707 39.7138 33.6075 40.4502L33.6064 40.4491ZM26.5891 32.0195L32.4979 35.3474L32.4967 35.3462C33.7712 36.0635 33.7838 37.8802 32.5206 38.6155L26.6619 42.0268C25.3987 42.7632 23.8059 41.8655 23.7956 40.413L23.7468 33.6738C23.7365 32.2213 25.3157 31.3023 26.5891 32.0195Z" fill="white"/>
</svg>
