<svg width="74" height="74" viewBox="0 0 74 74" fill="none" xmlns="http://www.w3.org/2000/svg">
<rect x="0.920013" y="0.826629" width="72.24" height="72.24" rx="36.12" stroke="#505050" stroke-width="1.14667"/>
<rect x="4.93335" y="4.83984" width="64.2133" height="64.2133" rx="32.1067" fill="#7B6FC5"/>
<path d="M44.3409 36.9472C47.9058 36.6839 50.7148 33.7082 50.7148 30.0769C50.7148 26.4456 47.6312 23.1865 43.8257 23.1865C40.3323 23.1865 37.4468 25.7862 36.998 29.1556C36.548 25.7862 33.6625 23.1865 30.1691 23.1865C26.3648 23.1865 23.28 26.2713 23.28 30.0756C23.28 33.8799 26.0903 36.6827 29.6539 36.9459C26.0903 37.2104 23.28 40.1849 23.28 43.8174C23.28 47.45 26.3648 50.7065 30.1691 50.7065C33.6625 50.7065 36.5468 48.1068 36.9968 44.7375C37.4468 48.1068 40.3323 50.7065 43.8244 50.7065C47.63 50.7065 50.7135 47.6217 50.7135 43.8174C50.7135 40.0131 47.9032 37.2104 44.3396 36.9472H44.3409ZM43.8257 26.9532C45.5505 26.9532 46.9481 28.3508 46.9481 30.0756C46.9481 31.8004 45.5505 33.198 43.8257 33.198C42.1009 33.198 40.7033 31.8004 40.7033 30.0756C40.7033 28.3508 42.1009 26.9532 43.8257 26.9532ZM27.0467 30.0756C27.0467 28.3508 28.4443 26.9532 30.1691 26.9532C31.8939 26.9532 33.2915 28.3508 33.2915 30.0756C33.2915 31.8004 31.8939 33.198 30.1691 33.198C28.4443 33.198 27.0467 31.8004 27.0467 30.0756ZM30.1691 46.9398C28.4443 46.9398 27.0467 45.5422 27.0467 43.8174C27.0467 42.0927 28.4443 40.695 30.1691 40.695C31.8939 40.695 33.2915 42.0927 33.2915 43.8174C33.2915 45.5422 31.8939 46.9398 30.1691 46.9398ZM36.998 42.8961C36.5706 39.6935 33.9433 37.1866 30.6843 36.9459C33.9421 36.7052 36.5693 34.1983 36.998 30.9957C37.4255 34.1983 40.0527 36.7052 43.3118 36.9459C40.054 37.1866 37.4267 39.6935 36.998 42.8961ZM43.8257 46.9398C42.1009 46.9398 40.7033 45.5422 40.7033 43.8174C40.7033 42.0927 42.1009 40.695 43.8257 40.695C45.5505 40.695 46.9481 42.0927 46.9481 43.8174C46.9481 45.5422 45.5505 46.9398 43.8257 46.9398Z" fill="white"/>
</svg>
