<svg width="74" height="74" viewBox="0 0 74 74" fill="none" xmlns="http://www.w3.org/2000/svg">
<rect x="0.653289" y="0.826507" width="72.24" height="72.24" rx="36.12" stroke="#505050" stroke-width="1.14667"/>
<rect x="4.66663" y="4.83972" width="64.2133" height="64.2133" rx="32.1067" fill="#7B6FC5"/>
<path fill-rule="evenodd" clip-rule="evenodd" d="M38.487 36.8217C45.2055 37.5906 50.4579 43.2591 50.5333 50.1966C43.0873 50.2781 36.9735 44.3651 36.7776 36.947H36.7752V36.8399C36.7752 36.8223 36.7746 36.8043 36.774 36.7864C36.7734 36.7685 36.7727 36.7505 36.7727 36.7329H36.7752C36.808 29.3136 42.7916 23.2679 50.2377 23.1864C50.3131 30.1239 45.1861 35.9055 38.487 36.8217ZM36.7703 36.7329H36.7727L36.7715 36.7341V36.8412C36.7715 36.8588 36.7721 36.8768 36.7727 36.8947C36.7733 36.9127 36.7739 36.9306 36.7739 36.9483H36.7715C36.7386 44.3676 30.755 50.4132 23.309 50.4947C23.2335 43.5573 28.3594 37.7756 35.0596 36.8595C28.3411 36.0905 23.0887 30.422 23.0133 23.4845C30.4594 23.403 36.5732 29.3161 36.7703 36.7329Z" fill="white"/>
</svg>
