<svg width="74" height="74" viewBox="0 0 74 74" fill="none" xmlns="http://www.w3.org/2000/svg">
<rect x="1.11996" y="0.826507" width="72.24" height="72.24" rx="36.12" stroke="#505050" stroke-width="1.14667"/>
<rect x="5.1333" y="4.83972" width="64.2133" height="64.2133" rx="32.1067" fill="#7B6FC5"/>
<path d="M51 37.235L41.7956 38.219L46.0492 36.6789C48.7408 35.7047 50.1331 32.7329 49.1589 30.0414L48.7867 29.0124L41.9182 35.2187L44.4544 31.4731C46.059 29.1022 45.4384 25.8797 43.0686 24.2751L42.1634 23.6621L40.2545 32.7198L40.1045 28.1981C40.0093 25.3368 37.6132 23.0951 34.752 23.1893L33.6585 23.2254L37.4381 31.6756L34.659 28.1061C32.9 25.8469 29.6436 25.4419 27.3854 27.1998L26.5229 27.8719L34.5473 32.4856L30.2007 31.2312C27.45 30.4376 24.5768 32.0236 23.7832 34.7732L23.48 35.824L32.6843 34.84L28.4308 36.3801C25.7392 37.3543 24.3469 40.3261 25.3211 43.0176L25.6932 44.0465L32.5617 37.8403L30.0256 41.5859C28.4209 43.9568 29.0416 47.1792 31.4113 48.7839L32.3165 49.3969L34.2255 40.3392L34.3755 44.8609C34.4707 47.7222 36.8667 49.9639 39.728 49.8697L40.8215 49.8336L37.0419 41.3834L39.821 44.9529C41.58 47.2121 44.8364 47.6171 47.0945 45.8592L47.957 45.1871L39.9327 40.5734L44.2793 41.8278C47.0299 42.6214 49.9032 41.0353 50.6968 38.2858L51 37.235ZM37.4709 38.6809C37.0167 38.7291 36.5592 38.6327 36.1629 38.4051C35.7667 38.1774 35.4525 37.8304 35.2664 37.4134C35.0804 36.9963 35.03 36.5311 35.1242 36.0835C35.2183 35.6369 35.4514 35.2308 35.7908 34.9243C36.1301 34.6178 36.557 34.4273 37.0112 34.3781C37.4655 34.3299 37.923 34.4263 38.3192 34.6539C38.7155 34.8816 39.0296 35.2286 39.2157 35.6456C39.4018 36.0627 39.4521 36.5279 39.358 36.9755C39.2639 37.4221 39.0307 37.8282 38.6914 38.1347C38.3521 38.4412 37.9252 38.6316 37.4709 38.6809Z" fill="white"/>
</svg>
